# xmcd
#
# Track frame offsets: 
#        150
#        28438
#        53701
#        82640
#        108480
#        134841
#        159317
#        183844
#        209105
#        232988
#        258357
#        287904
#        313622
#
# Disc length: 4644 seconds
#
# Revision: 2
# Processed by: cddbd v1.5.2PL0 Copyright (c) Steve Scherf et al.
# Submitted via: ExactAudioCopy v1.0b3
#
DISCID=b812220d
DTITLE=Various Artist - Hed Kandi: Twisted Disco
DYEAR=2008
DGENRE=House
TTITLE0=Splittr - All Alone
TTITLE1=Jay Men - Ohh La Lishious (Barratt and Falconi Remix)
TTITLE2=Dizzee Rascal - Flex (Dave Spoon Remix)
TTITLE3=Alex Romano - Get Down (Rock It Up) (Bass Kleph Mix)
TTITLE4=Stanton Warriors - Shake It Up (Hook and Sling Mix)
TTITLE5=Deadmau5 - Not Exactly
TTITLE6=Sandy Rivera and Haze - Freak (Bart B More Secured Dub)
TTITLE7=Ron Carroll - Walking Down The Street (Flamingo Remix)
TTITLE8=Peter Gelderblom vs. Dan Parker - Trapped
TTITLE9=Sgt Slick and Pitch Dark ft. Abigail Bailey - Automatic Machine 
TTITLE9=(Electricity) (Vandalism Vocal Remix)
TTITLE10=Arno Cost and Norman Doray - Apocalypse (Sébastien Léger Remix)
TTITLE11=John Dahlbäck - Hustle Up
TTITLE12=Gui Boratto - Beautiful Life
EXTD=
EXTT0=
EXTT1=
EXTT2=
EXTT3=
EXTT4=
EXTT5=
EXTT6=
EXTT7=
EXTT8=
EXTT9=
EXTT10=
EXTT11=
EXTT12=
PLAYORDER=
